<svg xmlns="http://www.w3.org/2000/svg" viewBox="0 0 24 24" fill="currentColor" aria-hidden="true">
  <path d="M12.8 17.5h1.4s.4-.1.7-.4c.2-.3.2-.8.2-.8s0-1.8.8-2c.8-.3 1.9 1.8 3 2.6.8.6 1.5.5 1.5.5l2.9-.1s1.5-.1.8-1.3c-.1-.1-.4-.8-2-2.3-1.7-1.5-1.5-1.3.6-4 1.3-1.7 1.8-2.7 1.6-3.2-.1-.5-1.2-.4-1.2-.4h-3.2s-.2 0-.4.1c-.2.1-.3.4-.3.4s-.5 1.3-1.1 2.4c-1.4 2.4-2 2.5-2.2 2.3-.5-.3-.4-1.3-.4-2.1 0-2.3.3-3.3-.7-3.5-.3-.1-.6-.1-1.5-.1-1.2 0-2.1 0-2.7.3-.4.2-.6.6-.5.6.2 0 .7.1 1 .5.3.5.3 1.6.3 1.6s.2 2.7-.4 3.1c-.4.2-1-.3-2.2-2.4-.6-1-1.1-2.2-1.1-2.2s-.1-.2-.3-.3c-.2-.1-.5-.1-.5-.1L4 6.7s-.4 0-.5.2c-.1.2 0 .5 0 .5s2.4 5.6 5.2 8.5C11.2 18.4 14 18 14 18l-1.2-.5z"/>
</svg>
